<!DOCTYPE svg PUBLIC "-//W3C//DTD SVG 1.1//EN" "http://www.w3.org/Graphics/SVG/1.1/DTD/svg11.dtd">
<!-- Uploaded to: SVG Repo, www.svgrepo.com, Transformed by: SVG Repo Mixer Tools -->
<svg fill="#ffffff" height="800px" width="800px" version="1.1" id="Capa_1" xmlns="http://www.w3.org/2000/svg" xmlns:xlink="http://www.w3.org/1999/xlink" viewBox="0 0 220.168 220.168" xml:space="preserve" stroke="#ffffff">
<g id="SVGRepo_bgCarrier" stroke-width="0"/>
<g id="SVGRepo_tracerCarrier" stroke-linecap="round" stroke-linejoin="round"/>
<g id="SVGRepo_iconCarrier"> <path d="M31.622,100.402v-0.624c0-4.143,3.358-7.5,7.5-7.5h37.725c4.142,0,7.5,3.357,7.5,7.5v0.624h51.476v-0.624 c0-4.143,3.358-7.5,7.5-7.5h37.725c4.142,0,7.5,3.357,7.5,7.5v0.624h31.622V79.259c0-14.337-11.664-26-26-26h-36.171V29.495 c0-4.143-3.358-7.5-7.5-7.5H69.671c-4.142,0-7.5,3.357-7.5,7.5v23.765H26c-14.336,0-26,11.663-26,26v21.143H31.622z M77.171,36.995 h65.825v16.265H77.171V36.995z M220.168,115.402v56.771c0,14.337-11.664,26-26,26H26c-14.336,0-26-11.663-26-26v-56.771h31.622 v3.896c0,4.143,3.358,7.5,7.5,7.5h37.725c4.142,0,7.5-3.357,7.5-7.5v-3.896h51.476v3.896c0,4.143,3.358,7.5,7.5,7.5h37.725 c4.142,0,7.5-3.357,7.5-7.5v-3.896H220.168z"/> </g>
</svg>